<svg xmlns="http://www.w3.org/2000/svg" enable-background="new 0 0 24 24" viewBox="0 0 24 24" id="confluence">
  <path fill="#2684FF" d="M0.364,20.339l4.965,3.048c0.361,0.219,0.83,0.112,1.05-0.247l0.005-0.009c3.146-5.245,3.774-4.482,13.169-0.033c0.38,0.183,0.834,0.019,1.017-0.36l0.01-0.019l2.363-5.333c0.169-0.379-0.005-0.822-0.38-0.995c-1.041-0.486-3.103-1.458-4.965-2.352C5.976,8.401,2.089,16.175,0.106,19.302v-0.001C-0.105,19.656,0.008,20.119,0.364,20.339L0.364,20.339z"></path>
  <path fill="#2684FF" d="M23.894,4.711c0.211-0.355,0.098-0.818-0.258-1.038l-4.96-3.044c-0.352-0.233-0.825-0.145-1.06,0.206l-0.028,0.047c-3.155,5.263-3.803,4.468-13.155,0.042C4.054,0.742,3.6,0.905,3.417,1.284L3.408,1.303L1.04,6.636c-0.169,0.379,0.005,0.822,0.38,0.995C2.461,8.118,4.529,9.09,6.39,9.988c11.627,5.609,15.508-2.122,17.506-5.277L23.894,4.711L23.894,4.711z"></path>
  <path fill="#2173DE" d="M10.158 12.043c-6.03-.001-8.571 4.924-10.052 7.259v-.001c-.211.355-.098.818.259 1.038l4.965 3.048C5.455 23.463 5.595 23.5 5.732 23.5c.255 0 .504-.127.647-.361l.005-.009c1.514-2.524 2.445-3.657 4.05-3.657.457 0 .969.092 1.565.27v-7.557C11.352 12.089 10.739 12.043 10.158 12.043L10.158 12.043zM4.107.849c-.285 0-.558.161-.691.435L3.408 1.303 1.04 6.636c-.169.379.005.822.38.995C2.461 8.118 4.529 9.09 6.39 9.988c2.114 1.02 3.973 1.599 5.61 1.844v-7.55c-1.66-.49-3.969-1.656-7.566-3.358C4.328.873 4.217.849 4.107.849L4.107.849z"></path>
</svg>
